<svg width="10" height="10" viewBox="0 0 10 10" fill="none" xmlns="http://www.w3.org/2000/svg">
<g clip-path="url(#clip0_6199_129439)">
<path d="M7.19748 0.416992C6.55892 0.416992 5.95318 0.669135 5.5026 1.1212L4.94162 1.68218C4.48956 2.13425 4.23741 2.7385 4.23741 3.37706C4.23741 3.67993 4.2956 3.97534 4.40451 4.24837L5.02517 3.62771C4.94759 3.13238 5.09828 2.59975 5.47873 2.21929L6.03971 1.65831C6.34706 1.35097 6.76332 1.18088 7.19748 1.18088C7.63165 1.18088 8.03597 1.35097 8.34332 1.65831C8.9774 2.2924 8.9774 3.32783 8.34332 3.96191L7.78233 4.52289C7.47499 4.83024 7.05873 5.00033 6.62457 5.00033C6.53952 5.00033 6.45597 4.99137 6.37391 4.97645L5.75325 5.59711C6.02629 5.70603 6.3217 5.76421 6.62457 5.76421C7.26313 5.76421 7.86887 5.51207 8.31944 5.06L8.88042 4.49902C9.33249 4.04696 9.58463 3.44271 9.58463 2.80414C9.58463 2.16558 9.33249 1.57327 8.88042 1.1212C8.42985 0.669135 7.83605 0.416992 7.19748 0.416992ZM6.25456 3.19802L3.199 6.25358L3.74805 6.80263L6.8036 3.74707L6.25456 3.19802ZM3.37804 4.23644C2.73947 4.23644 2.13373 4.48858 1.68316 4.94065L1.12218 5.50163C0.670112 5.95369 0.417969 6.55794 0.417969 7.19651C0.417969 7.83507 0.670112 8.42738 1.12218 8.87945C1.57275 9.33152 2.16656 9.58366 2.80512 9.58366C3.44368 9.58366 4.04942 9.33152 4.5 8.87945L5.06098 8.31847C5.51305 7.8664 5.76519 7.26215 5.76519 6.62359C5.76519 6.32072 5.707 6.02531 5.59809 5.75228L4.97743 6.37294C5.05501 6.86827 4.90432 7.40091 4.52387 7.78136L3.96289 8.34234C3.65554 8.64968 3.23928 8.81977 2.80512 8.81977C2.37096 8.81977 1.96663 8.64968 1.65929 8.34234C1.0252 7.70825 1.0252 6.67282 1.65929 6.03874L2.22027 5.47776C2.52762 5.17041 2.94387 5.00033 3.37804 5.00033C3.46308 5.00033 3.54663 5.00928 3.62869 5.0242L4.24935 4.40354C3.97632 4.29462 3.68091 4.23644 3.37804 4.23644Z" fill="#1A3673"/>
</g>
<defs>
<clipPath id="clip0_6199_129439">
<rect width="10" height="10" fill="white"/>
</clipPath>
</defs>
</svg>
