<svg width="24" height="24" viewBox="0 0 24 24" fill="none" xmlns="http://www.w3.org/2000/svg">
<path d="M11.5012 23C12.5889 23 13.4787 22.0769 13.4787 20.9487H9.5237C9.5237 22.0769 10.4037 23 11.5012 23ZM17.4338 16.8462V11.7179C17.4338 8.56923 15.8122 5.93333 12.9844 5.2359V4.53846C12.9844 3.68718 12.3219 3 11.5012 3C10.6805 3 10.0181 3.68718 10.0181 4.53846V5.2359C7.18033 5.93333 5.56865 8.55897 5.56865 11.7179V16.8462L4.29315 18.1692C3.67023 18.8154 4.10528 19.9231 4.98528 19.9231H18.0073C18.8873 19.9231 19.3322 18.8154 18.7093 18.1692L17.4338 16.8462Z" fill="#2861BB"/>
</svg>
