<svg width="16" height="16" viewBox="0 0 16 16" fill="none" xmlns="http://www.w3.org/2000/svg">
<path fill-rule="evenodd" clip-rule="evenodd" d="M14.1193 10.4167L15.3346 10.9167C14.1862 13.8932 11.3719 16 8.0013 16C5.62466 16 3.51067 14.9245 2.06872 13.2708V15.3333H0.750366V10.6667H5.3646V12H2.74849C3.94325 13.5911 5.84096 14.6667 8.0013 14.6667C10.8286 14.6667 13.1588 12.9062 14.1193 10.4167ZM8.0013 0C10.3548 0 12.4894 1.05469 13.9339 2.72917V0.666668H15.2522V5.33333H10.638V4H13.2335C12.0439 2.39323 10.1385 1.33333 8.0013 1.33333C5.17405 1.33333 2.84376 3.09375 1.88332 5.58333L0.667969 5.08333C1.81638 2.10677 4.63075 0 8.0013 0Z" fill="#44B8F3"/>
<mask id="mask0_6199_129534" style="mask-type:luminance" maskUnits="userSpaceOnUse" x="0" y="0" width="16" height="16">
<path fill-rule="evenodd" clip-rule="evenodd" d="M14.1193 10.4167L15.3346 10.9167C14.1862 13.8932 11.3719 16 8.0013 16C5.62466 16 3.51067 14.9245 2.06872 13.2708V15.3333H0.750366V10.6667H5.3646V12H2.74849C3.94325 13.5911 5.84096 14.6667 8.0013 14.6667C10.8286 14.6667 13.1588 12.9062 14.1193 10.4167ZM8.0013 0C10.3548 0 12.4894 1.05469 13.9339 2.72917V0.666668H15.2522V5.33333H10.638V4H13.2335C12.0439 2.39323 10.1385 1.33333 8.0013 1.33333C5.17405 1.33333 2.84376 3.09375 1.88332 5.58333L0.667969 5.08333C1.81638 2.10677 4.63075 0 8.0013 0Z" fill="white"/>
</mask>
<g mask="url(#mask0_6199_129534)">
</g>
</svg>
