<svg width="22" height="22" viewBox="0 0 22 22" fill="none" xmlns="http://www.w3.org/2000/svg">
<path d="M12.668 2.66699C8.25766 2.66699 4.66797 6.25668 4.66797 10.667C4.66797 15.0773 8.25766 18.667 12.668 18.667C13.8354 18.667 14.9435 18.4098 15.9414 17.9613L17.2943 17.3532L15.9414 16.7451C13.6213 15.7029 12.0013 13.3814 12.0013 10.667C12.0013 7.95257 13.6213 5.63105 15.9414 4.58887L17.2943 3.98079L15.9414 3.37272C14.9435 2.92421 13.8354 2.66699 12.668 2.66699ZM12.668 4.00033C13.1297 4.00033 13.528 4.18977 13.9622 4.28027C11.9866 5.73666 10.668 8.02915 10.668 10.667C10.668 13.3048 11.9866 15.5973 13.9622 17.0537C13.528 17.1442 13.1297 17.3337 12.668 17.3337C8.97828 17.3337 6.0013 14.3567 6.0013 10.667C6.0013 6.9773 8.97828 4.00033 12.668 4.00033Z" fill="white"/>
</svg>
