<svg width="16" height="16" viewBox="0 0 16 16" fill="none" xmlns="http://www.w3.org/2000/svg">
<path d="M8.74315 2.64823C8.69349 2.28215 8.3797 2 8 2C7.58579 2 7.25 2.33579 7.25 2.75V7.25H2.75L2.64823 7.25685C2.28215 7.30651 2 7.6203 2 8C2 8.41421 2.33579 8.75 2.75 8.75H7.25V13.25L7.25685 13.3518C7.30651 13.7178 7.6203 14 8 14C8.41421 14 8.75 13.6642 8.75 13.25V8.75H13.25L13.3518 8.74315C13.7178 8.69349 14 8.3797 14 8C14 7.58579 13.6642 7.25 13.25 7.25H8.75V2.75L8.74315 2.64823Z" fill="#2861BB"/>
</svg>
