<svg width="22" height="22" viewBox="0 0 22 22" fill="none" xmlns="http://www.w3.org/2000/svg">
<path d="M9.99805 2.00098V5.33431H11.3314V2.00098H9.99805ZM4.99805 4.06348L4.06055 5.00098L6.41471 7.37598L7.37305 6.41764L4.99805 4.06348ZM16.3314 4.06348L13.9564 6.41764L14.9147 7.37598L17.2689 5.00098L16.3314 4.06348ZM10.6647 6.00098C8.0944 6.00098 5.99805 8.09733 5.99805 10.6676C5.99805 13.238 8.0944 15.3343 10.6647 15.3343C13.235 15.3343 15.3314 13.238 15.3314 10.6676C15.3314 8.09733 13.235 6.00098 10.6647 6.00098ZM10.6647 7.33431C12.5137 7.33431 13.998 8.81868 13.998 10.6676C13.998 12.5166 12.5137 14.001 10.6647 14.001C8.81575 14.001 7.33138 12.5166 7.33138 10.6676C7.33138 8.81868 8.81575 7.33431 10.6647 7.33431ZM1.99805 10.001V11.3343H5.33138V10.001H1.99805ZM15.998 10.001V11.3343H19.3314V10.001H15.998ZM6.41471 13.9593L4.06055 16.3343L4.99805 17.2718L7.37305 14.9176L6.41471 13.9593ZM14.9147 13.9593L13.9564 14.9176L16.3314 17.2718L17.2689 16.3343L14.9147 13.9593ZM9.99805 16.001V19.3343H11.3314V16.001H9.99805Z" fill="#1A3673"/>
</svg>
