<svg width="93" height="41" viewBox="0 0 93 41" fill="none" xmlns="http://www.w3.org/2000/svg">
<path d="M18.9561 8.79266L13.9277 3.78837L8.89932 8.79259L6.99609 6.89865L13.9277 0L20.8594 6.89875L18.9561 8.79266Z" fill="#44B8F3"/>
<path d="M0.000173394 10.5515L10.1618 10.5516L10.1617 13.4028L3.0607 13.4027L3.06066 16.8634L9.1824 16.8634L9.18237 19.739L3.06063 19.739L3.06059 23.2967L10.1616 23.2968L10.1616 26.1724L0 26.1723L0.000173394 10.5515ZM12.4311 9.40601L15.4186 9.40603L15.4185 23.9481L15.4184 26.1724L12.4309 26.1724L12.4311 9.40601ZM17.2447 20.3479C17.2447 16.9368 19.7918 14.1583 23.1708 14.1583C26.5252 14.1583 29.0716 16.7414 29.0715 20.1044C29.0715 20.4702 29.047 20.8842 28.9979 21.0796L20.3059 21.0795C20.5991 22.7118 21.8484 23.8819 23.6603 23.8819C24.8353 23.8819 25.8391 23.3702 26.5251 22.6637L28.0677 24.6862C27.1859 25.7096 25.5213 26.5139 23.5376 26.5139C19.8892 26.5138 17.2447 23.7353 17.2447 20.3479ZM20.3544 19.203L26.011 19.203C25.668 17.5457 24.6151 16.6925 23.2192 16.6925C21.7257 16.6925 20.6974 17.7166 20.3544 19.203ZM41.7867 14.4998L37.5503 26.1726L33.6817 26.1726L29.4211 14.4997L32.7025 14.4997L35.6894 23.5162L38.7261 14.4998L41.7867 14.4998ZM51.2216 24.9056C50.3644 25.9046 49.1648 26.5141 47.6468 26.5141C44.5372 26.514 42.0147 23.9791 42.0148 20.3481C42.0148 16.8148 44.39 14.1584 47.6469 14.1585C49.1895 14.1585 50.389 14.7191 51.2217 15.6693L51.2217 14.4999L54.2332 14.4999L54.233 26.1727L51.2215 26.1727L51.2216 24.9056ZM51.2216 20.3238C51.2216 18.4478 49.9239 16.9608 48.1366 16.9608C46.3246 16.9608 45.0023 18.4478 45.0023 20.3237C45.0023 22.2003 46.3246 23.7111 48.1365 23.7111C49.9238 23.7111 51.2216 22.2003 51.2216 20.3238ZM59.5755 26.1728L56.588 26.1728L56.5881 14.4999L59.5757 14.4999L59.5756 15.6449C60.3101 14.6947 61.4367 14.1586 62.881 14.1586C65.5992 14.1586 67.3375 16.0596 67.3375 19.1056L67.3374 26.1728L64.3504 26.1728L64.3505 19.5447C64.3505 17.9606 63.4197 16.9609 61.9754 16.9609C60.4813 16.9609 59.5756 17.9606 59.5756 19.5446L59.5755 26.1728ZM75.2373 16.961C73.2787 16.961 71.9564 18.448 71.9564 20.3239C71.9564 22.2005 73.3032 23.7113 75.2127 23.7113C76.4128 23.7113 77.3676 23.2973 78.102 22.5663L79.62 24.7592C78.6898 25.7833 77.0006 26.5143 75.1396 26.5143C71.6624 26.5142 68.9688 23.7357 68.9688 20.3483C68.9689 16.9372 71.6626 14.1587 75.0907 14.1587C77.0983 14.1587 78.6899 14.8414 79.7183 15.9132L78.0045 18.0334C77.2695 17.3268 76.3884 16.961 75.2373 16.961ZM80.4294 20.3484C80.4295 16.9373 82.9759 14.1587 86.3555 14.1588C89.71 14.1588 92.2563 16.7419 92.2563 20.1049C92.2563 20.4707 92.2317 20.8847 92.1826 21.0801L83.4906 21.08C83.7839 22.7123 85.0331 23.8824 86.845 23.8824C88.02 23.8824 89.0239 23.3707 89.7099 22.6641L91.2524 24.6867C90.3707 25.7101 88.706 26.5144 86.7223 26.5144C83.0739 26.5143 80.4294 23.7358 80.4294 20.3484ZM83.5391 19.2035L89.1957 19.2035C88.8527 17.5461 87.7998 16.693 86.4039 16.693C84.9105 16.693 83.8821 17.7171 83.5391 19.2035ZM52.169 35.4936L47.8407 35.4935L47.8406 39.8822L45.7916 39.8822L45.7919 29.4245L47.8408 29.4246L47.8407 33.5847L52.1691 33.5848L52.1692 29.4247L54.235 29.4247L54.2347 39.8824L52.1689 39.8823L52.169 35.4936ZM55.5368 35.9831C55.5368 33.6994 57.2416 31.8393 59.5042 31.8393C61.7499 31.8394 63.4546 33.5687 63.4545 35.8201C63.4545 36.065 63.4381 36.3422 63.4052 36.473L57.5862 36.4729C57.7825 37.5657 58.6188 38.349 59.8318 38.349C60.6185 38.349 61.2905 38.0064 61.7498 37.5334L62.7824 38.8875C62.1921 39.5727 61.0777 40.1111 59.7496 40.111C57.3071 40.111 55.5367 38.2508 55.5368 35.9831ZM57.6186 35.2166L61.4056 35.2166C61.176 34.1071 60.4711 33.5359 59.5366 33.5359C58.5368 33.5359 57.8483 34.2215 57.6186 35.2166ZM70.6302 39.0344C70.0563 39.7032 69.2533 40.1112 68.237 40.1112C66.1552 40.1112 64.4665 38.4141 64.4666 35.9832C64.4666 33.6178 66.0568 31.8395 68.2372 31.8395C69.2699 31.8395 70.0729 32.2148 70.6303 32.851L70.6304 32.0681L72.6465 32.0681L72.6463 39.8828L70.6302 39.8827L70.6302 39.0344ZM70.6303 35.967C70.6303 34.7111 69.7615 33.7156 68.5649 33.7156C67.3519 33.7156 66.4667 34.711 66.4667 35.9669C66.4666 37.2232 67.3518 38.2347 68.5648 38.2347C69.7614 38.2347 70.6302 37.2233 70.6303 35.967ZM74.3459 28.6582L76.346 28.6582L76.3457 38.7688L76.3457 39.8828L74.3456 39.8828L74.3459 28.6582ZM77.6853 32.0682L79.0787 32.0683L79.0787 30.0454L81.0788 30.0455L81.0788 32.0683L83.2095 32.0684L83.2094 33.8304L81.0947 33.8303L81.0947 37.1422C81.0946 37.8764 81.4064 38.235 81.9963 38.235C82.3569 38.235 82.7176 38.0719 82.9144 37.8438L83.816 39.3282C83.3732 39.7526 82.6358 40.1115 81.6684 40.1115C80.0783 40.1115 79.0621 39.1159 79.0621 37.2072L79.0622 33.8303L77.6853 33.8303L77.6853 32.0682ZM87.0514 39.8831L85.0514 39.883L85.0516 28.6584L87.0517 28.6584L87.0516 32.835C87.5433 32.1989 88.2975 31.8399 89.2645 31.8399C91.0842 31.84 92.2479 33.1127 92.2479 35.1519L92.2478 39.8832L90.2481 39.8831L90.2482 35.4458C90.2482 34.3853 89.6251 33.716 88.6581 33.716C87.6579 33.716 87.0516 34.3852 87.0515 35.4457L87.0514 39.8831Z" fill="#1A3673"/>
</svg>
