<svg width="61" height="104" viewBox="0 0 61 104" fill="none" xmlns="http://www.w3.org/2000/svg">
<path d="M30.2658 103.086L0 86.7993V0H60.5583V86.7993L30.2658 103.086Z" fill="#002170"/>
<path fill-rule="evenodd" clip-rule="evenodd" d="M24.3623 81.0307C24.3623 81.5494 24.255 82.0055 24.0403 82.3991C23.8078 82.7926 23.4948 83.2129 23.1012 83.6601L21.9206 84.8944H24.3891V86.1823H20.0424V85.0285L21.9743 82.882C22.3321 82.5064 22.5735 82.2023 22.6988 81.9698C22.824 81.7193 22.8866 81.4242 22.8866 81.0843C22.8866 80.6014 22.6451 80.3062 22.2158 80.3062C21.7328 80.3062 21.4913 80.6282 21.4645 81.299L20.0156 81.2185C20.0425 79.8501 20.8205 79.0183 22.1889 79.0183C23.5573 79.0183 24.3623 79.7428 24.3623 81.0307ZM29.9432 79.9574C30.4262 80.6014 30.6676 81.4957 30.6676 82.6405C30.6676 83.7853 30.4262 84.6797 29.9432 85.3237C29.4603 85.9676 28.7895 86.2896 28.0114 86.2896C27.1885 86.2896 26.5356 85.9676 26.0527 85.3237C25.5697 84.6797 25.3282 83.7853 25.3282 82.6405C25.3282 81.4957 25.5697 80.6014 26.0527 79.9574C26.5356 79.3313 27.1885 79.0183 28.0114 79.0183C28.7895 79.0183 29.4603 79.3403 29.9432 79.9574ZM26.804 82.6405C26.804 84.1968 27.2064 84.9838 28.0114 85.0017C28.7984 84.9838 29.1919 84.1968 29.1919 82.6405C29.1919 81.0843 28.7984 80.3062 28.0114 80.3062C27.2064 80.3062 26.804 81.0843 26.804 82.6405ZM34.2094 86.1823H32.7605V80.9502L31.8482 81.5673L31.2043 80.4135L33.1361 79.0988H34.2094V86.1823ZM39.6561 79.6623C40.1212 80.1095 40.3538 80.6908 40.3538 81.4063C40.3538 81.9161 40.1928 82.4259 39.844 82.9089L37.5365 86.1823H35.7925L37.5365 83.7406C36.9104 83.687 36.3917 83.4455 35.9803 83.0162C35.5689 82.5869 35.3631 82.0503 35.3631 81.4063C35.381 80.6908 35.6225 80.1095 36.0876 79.6623C36.5348 79.233 37.1251 79.0183 37.8585 79.0183C38.5829 79.0183 39.2 79.233 39.6561 79.6623ZM38.6902 82.1576C38.8243 81.9966 38.8781 81.7551 38.8781 81.4331C38.8781 80.7623 38.4756 80.3062 37.8585 80.3062C37.2682 80.3062 36.8389 80.7623 36.8389 81.4331C36.8389 82.1307 37.2682 82.56 37.8585 82.56C38.2341 82.56 38.5113 82.4259 38.6902 82.1576ZM28.1187 89.724V91.9242C28.1366 92.425 28.0024 92.8186 27.7162 93.1048C27.43 93.3731 27.0365 93.5072 26.5357 93.5072C26.0527 93.5072 25.6681 93.3731 25.3819 93.1048C25.0957 92.8186 24.9526 92.425 24.9526 91.9242V89.724H25.7039V91.9242C25.7039 92.5145 25.999 92.8364 26.5357 92.8364C27.0723 92.8364 27.3674 92.5145 27.3674 91.9242V89.724H28.1187ZM31.0165 89.9655C31.2848 90.1801 31.4189 90.4574 31.4189 90.7973L30.6408 90.8509C30.6408 90.5289 30.3993 90.3143 30.0505 90.3143C29.7017 90.3143 29.4871 90.5021 29.4871 90.7704C29.4871 90.9135 29.5407 91.0119 29.648 91.0656C29.7554 91.1371 29.9521 91.1997 30.2383 91.2534C30.6676 91.3786 30.9807 91.5128 31.1774 91.6559C31.3921 91.8168 31.4994 92.0494 31.4994 92.3535C31.4994 92.7291 31.3653 93.0153 31.097 93.2121C30.8466 93.4089 30.5245 93.5072 30.131 93.5072C29.6838 93.5072 29.3171 93.3999 29.0309 93.1852C28.7626 92.9885 28.6284 92.6933 28.6284 92.2998L29.4066 92.273C29.4334 92.6218 29.7286 92.8364 30.131 92.8364C30.5245 92.8364 30.7213 92.6934 30.7213 92.4072C30.7213 92.1388 30.5067 92.0315 29.9432 91.8973C29.7465 91.8437 29.5855 91.799 29.4602 91.7632C29.335 91.7095 29.2098 91.6469 29.0846 91.5754C28.8163 91.3876 28.7089 91.1461 28.7089 90.7973C28.7089 90.4753 28.8252 90.207 29.0578 89.9923C29.2903 89.7598 29.6212 89.6435 30.0505 89.6435C30.444 89.6614 30.766 89.7687 31.0165 89.9655Z" fill="white"/>
<path fill-rule="evenodd" clip-rule="evenodd" d="M35.4979 93.427H34.6661L34.3441 92.7294H32.7879L32.4928 93.427H31.6342L33.2441 89.6975H33.888L35.4979 93.427ZM33.0831 92.0855H34.0758L33.566 90.8781L33.0831 92.0855ZM11.9936 66.9982C12.7985 67.6421 13.3083 68.5007 13.4693 69.574L11.4838 69.735C11.2155 68.4471 10.3033 67.7495 9.01537 67.7495C8.21043 67.7495 7.55752 68.0267 7.05667 68.5812C6.5737 69.1357 6.33223 69.8781 6.33223 70.8082C6.33223 71.7742 6.58267 72.5254 7.08352 73.0621C7.59332 73.5987 8.23722 73.867 9.04216 73.867C10.3301 73.867 11.2424 73.1694 11.4838 71.9083L13.4693 72.0693C13.3083 73.1426 12.7985 73.9743 11.9936 74.6183C11.2155 75.2354 10.2228 75.5574 9.09587 75.5574C7.72748 75.5574 6.5737 75.1281 5.7151 74.2695C4.82967 73.4109 4.40039 72.2571 4.40039 70.8082C4.40039 69.3325 4.82967 68.1788 5.7151 67.347C6.5737 66.4884 7.70064 66.0591 9.09587 66.0591C10.2228 66.0591 11.1887 66.3811 11.9936 66.9982Z" fill="white"/>
<path fill-rule="evenodd" clip-rule="evenodd" d="M20.3371 72.7935H15.9636C16.0172 73.5984 16.5002 74.1082 17.3051 74.1082C17.9491 74.1082 18.3337 73.8667 18.4589 73.3837L20.2834 73.4911C20.1761 74.0814 19.8542 74.5912 19.2907 74.9668C18.7541 75.3603 18.1101 75.5571 17.3588 75.5571C16.366 75.5571 15.5611 75.2619 14.944 74.6448C14.3537 74.0545 14.0586 73.2496 14.0586 72.23C14.0586 71.2104 14.3537 70.4055 14.944 69.8152C15.5611 69.1981 16.3392 68.9029 17.3051 68.9029C18.2353 68.9029 18.9776 69.1891 19.5322 69.7615C20.0688 70.325 20.3371 71.1031 20.3371 72.0958V72.7935ZM15.9636 71.586H18.5394C18.4857 70.7811 18.0833 70.2981 17.2784 70.2981C16.5002 70.2981 16.0172 70.7811 15.9636 71.586ZM24.7106 70.7006C23.6642 70.7006 23.0202 71.2909 23.0202 72.1763V75.3961H21.2225V69.0102H22.9666V69.7615C23.2886 69.2249 23.8788 68.9566 24.7106 68.9566V70.7006ZM28.4134 70.5933V72.9545C28.4134 73.5984 28.8158 73.9204 29.3792 73.9204C29.5045 73.9204 29.6923 73.8935 29.9427 73.8399V75.4498C29.585 75.5034 29.2451 75.5303 28.9231 75.5303C27.5011 75.5303 26.5888 74.8058 26.6156 73.3837V70.5933H25.4619V69.0371H26.6425V66.9174H28.4401V69.0371H29.9427V70.5933H28.4134ZM32.8405 66.9442C32.8405 67.2483 32.7421 67.4987 32.5454 67.6955C32.1161 68.1248 31.4185 68.1248 31.016 67.6955C30.3184 67.0784 30.855 65.8173 31.7673 65.8441C32.3844 65.8441 32.8405 66.3271 32.8405 66.9442ZM32.6795 75.3961H30.855V69.0371H32.6795V75.3961ZM37.7506 65.7636V67.3199C37.6164 67.293 37.4823 67.293 37.3481 67.293C36.7042 67.293 36.2749 67.6955 36.2749 68.3126V69.0102H37.7506V70.5665H36.2749V75.3961H34.4772V70.5665H33.3234V69.0102H34.4772V68.3663C34.4772 67.5613 34.7187 66.9174 35.2016 66.4344C35.6846 65.9515 36.3286 65.7368 37.1335 65.7368C37.3661 65.7368 37.5717 65.7458 37.7506 65.7636ZM40.8094 66.9174C40.8094 67.2125 40.7021 67.4808 40.4875 67.6955C40.085 68.098 39.3873 68.098 38.958 67.6955C38.2872 67.0784 38.8239 65.7905 39.7362 65.8441C40.3265 65.8441 40.8094 66.3271 40.8094 66.9174ZM40.6484 75.3961H38.8239V69.0102H40.6484V75.3961ZM47.8124 72.7666H43.412C43.4657 73.5716 43.9487 74.0814 44.7536 74.0814C45.3976 74.0814 45.7911 73.8488 45.9342 73.3837L47.7319 73.4642C47.6246 74.0545 47.3026 74.5643 46.7391 74.94C46.2025 75.3335 45.5585 75.5303 44.8073 75.5303C43.8145 75.5303 43.0096 75.2351 42.4193 74.618C41.8022 74.0277 41.507 73.2228 41.507 72.2032C41.507 71.1836 41.8022 70.3786 42.4193 69.7883C43.0096 69.1981 43.7877 68.9029 44.7536 68.9029C45.6838 68.9029 46.4261 69.1802 46.9806 69.7347C47.5172 70.2981 47.8124 71.0763 47.8124 72.069V72.7666ZM43.412 71.5592H45.9879C45.961 70.7543 45.5317 70.2713 44.7536 70.2713C43.9755 70.2713 43.4657 70.7543 43.412 71.5592ZM55.0032 75.3693H53.3128V74.7253C52.9371 75.1814 52.2664 75.5034 51.4078 75.5034C50.5134 75.5034 49.7711 75.1993 49.1808 74.5912C48.6084 74.0009 48.3222 73.2049 48.3222 72.2032C48.3222 71.2015 48.6084 70.3965 49.1808 69.7883C49.7711 69.1802 50.5134 68.8761 51.4078 68.8761C52.2127 68.8761 52.803 69.0907 53.2055 69.5469V65.7905H55.0032V75.3693ZM50.1467 72.1763C50.1467 73.3033 50.7638 73.9472 51.7029 73.9472C52.5883 73.9472 53.2055 73.3569 53.2055 72.3373V72.0422C53.2055 71.0494 52.5883 70.4055 51.7029 70.4055C50.7638 70.4055 50.1467 71.0763 50.1467 72.1763Z" fill="white"/>
<path d="M0 0H60.5583V60.5315H0V0Z" fill="#E50000"/>
<path fill-rule="evenodd" clip-rule="evenodd" d="M15.0785 9.31082V10.1426C15.0785 11.663 14.5866 12.8883 13.6028 13.8185C12.6369 14.7665 11.3848 15.2405 9.84643 15.2405C8.20078 15.2405 6.84134 14.7129 5.76808 13.6575C4.69483 12.5663 4.1582 11.2606 4.1582 9.74012C4.1582 8.1839 4.68593 6.86917 5.74129 5.79591C6.81454 4.72266 8.15608 4.18604 9.73913 4.18604C11.7247 4.18604 13.4418 5.15196 14.3541 6.65451L12.5564 7.70094C12.0735 6.84234 10.9733 6.22522 9.71228 6.22522C8.69268 6.22522 7.86097 6.55613 7.21701 7.21797C6.55517 7.87981 6.2242 8.72052 6.2242 9.74012C6.2242 10.7329 6.57306 11.5646 7.21701 12.2086C7.89674 12.8704 8.78215 13.2014 9.87329 13.2014C11.4832 13.2014 12.5833 12.4233 12.9589 11.1622H9.73913V9.31082H15.0785ZM18.2179 8.74736C18.5667 7.78143 19.4253 7.29847 20.418 7.29847V9.4718C19.8546 9.39131 19.3179 9.52547 18.8886 9.84745C18.4325 10.1694 18.2179 10.6792 18.2179 11.4037V15.0259H16.3665V7.43263H18.2179V8.74736ZM23.5573 12.0476C23.8077 12.9957 24.5232 13.4697 25.7038 13.4697C26.4282 13.4697 27.0185 13.2282 27.3942 12.7184L28.9772 13.6307C28.2259 14.7039 27.1258 15.2405 25.6501 15.2405C24.398 15.2405 23.3963 14.8649 22.645 14.1136C21.8759 13.3623 21.4913 12.4054 21.4913 11.2427C21.4913 10.1158 21.8937 9.14983 22.6182 8.39855C23.3694 7.62044 24.3354 7.24481 25.516 7.24481C26.6161 7.24481 27.5551 7.62044 28.2528 8.39855C28.9772 9.17666 29.3529 10.1158 29.3529 11.2427C29.3529 11.511 29.326 11.7525 29.2724 12.0476H23.5573ZM27.3942 10.5182C27.1795 9.49864 26.4014 8.98884 25.516 8.98884C24.4695 8.98884 23.7451 9.5523 23.5304 10.5182H27.3942ZM36.4094 7.45945H38.3681V15.0259H36.4094V14.1405C35.8192 14.8917 34.9874 15.2405 33.941 15.2405C32.9214 15.2405 32.0628 14.8649 31.3384 14.0868C30.6139 13.3355 30.2382 12.3696 30.2382 11.2427C30.2382 10.1158 30.6139 9.17666 31.3384 8.39855C32.0628 7.62044 32.9214 7.24481 33.941 7.24481C34.9874 7.24481 35.8192 7.59361 36.4094 8.34489V7.45945ZM34.2898 13.3892C34.898 13.3892 35.3989 13.1924 35.7924 12.7989C36.2038 12.3875 36.4094 11.8687 36.4094 11.2427C36.4094 10.6256 36.2217 10.1158 35.7924 9.71329C35.3989 9.30188 34.898 9.10511 34.2898 9.123C33.6816 9.10511 33.1807 9.30188 32.7872 9.71329C32.3937 10.1068 32.1969 10.6166 32.1969 11.2427C32.1969 11.8687 32.3937 12.3875 32.7872 12.7989C33.1807 13.1924 33.6816 13.3892 34.2898 13.3892ZM44.7809 9.33765H43.0636V12.5037C43.0636 13.3087 43.6808 13.3355 44.7809 13.2819V15.0527C42.0977 15.3479 41.1049 14.5698 41.1049 12.5037V9.33765H39.7902V7.45945H41.1049V5.93007L43.0636 5.33978V7.45945H44.7809V9.33765ZM9.52447 17.7627C10.5441 17.7627 11.4027 18.1115 12.1003 18.8091C12.7979 19.4888 13.1467 20.3295 13.1467 21.3313C13.1467 22.333 12.7979 23.1826 12.1003 23.8802C11.4027 24.551 10.5441 24.8998 9.52447 24.8998H7.64628V28.3879H5.55342V17.7627H9.52447ZM9.52447 22.9411C10.4367 22.9411 11.0807 22.2435 11.0807 21.3313C11.0807 20.419 10.4367 19.7214 9.52447 19.7214H7.67313V22.9411H9.52447ZM14.5688 17.87H16.5275V28.3879H14.5688V17.87Z" fill="white"/>
<path fill-rule="evenodd" clip-rule="evenodd" d="M24.3891 20.7944H26.3477V28.3876H24.3891V27.4754C23.7988 28.2266 22.967 28.5754 21.9205 28.5754C20.9009 28.5754 20.0423 28.1998 19.3179 27.4217C18.5935 26.6704 18.2179 25.7045 18.2179 24.5776C18.2179 23.4507 18.5935 22.5116 19.3179 21.7335C20.0423 20.9553 20.9009 20.5797 21.9205 20.5797C22.967 20.5797 23.7988 20.9285 24.3891 21.6798V20.7944ZM22.2694 26.7241C22.8775 26.7241 23.3784 26.5273 23.7719 26.1338C24.1833 25.7224 24.3891 25.2036 24.3891 24.5776C24.3891 23.9605 24.2012 23.4507 23.7719 23.0482C23.3784 22.6547 22.8775 22.4579 22.2694 22.4579C21.6791 22.4579 21.1782 22.6547 20.7668 23.0482C20.3733 23.4596 20.1765 23.9694 20.1765 24.5776C20.1765 25.2036 20.3733 25.7224 20.7668 26.1338C21.1782 26.5273 21.6791 26.7241 22.2694 26.7241ZM29.165 27.4485C28.4137 26.6704 28.0381 25.7313 28.0381 24.5776C28.0381 23.4507 28.4137 22.5116 29.165 21.7335C29.952 20.9643 30.9091 20.5797 32.036 20.5797C33.5117 20.5797 34.8264 21.331 35.4436 22.5384L33.7532 23.5312C33.458 22.914 32.8141 22.5116 32.036 22.5116C30.8554 22.5116 29.9968 23.3702 29.9968 24.5776C29.9968 25.1947 30.1846 25.6777 30.5603 26.0801C30.9538 26.4558 31.4457 26.6436 32.036 26.6436C32.8141 26.6436 33.4581 26.268 33.78 25.6508L35.4704 26.6168C34.7996 27.8242 33.5117 28.6023 32.036 28.6023C30.9091 28.6023 29.952 28.2177 29.165 27.4485ZM38.6097 25.3825C38.8601 26.3484 39.5666 26.8314 40.7293 26.8314C41.4806 26.8314 42.0709 26.5631 42.4465 26.0533L44.0296 26.9656C43.2783 28.0388 42.1782 28.6023 40.7025 28.6023C39.4503 28.6023 38.4486 28.2177 37.6974 27.4485C36.9282 26.6972 36.5436 25.7403 36.5436 24.5776C36.5436 23.4507 36.9193 22.4847 37.6706 21.7335C38.4218 20.9553 39.3877 20.5797 40.5683 20.5797C41.6684 20.5797 42.6075 20.9553 43.3052 21.7335C44.0296 22.5116 44.4052 23.4507 44.4052 24.5776C44.4052 24.8459 44.3784 25.1142 44.3247 25.3825H38.6097ZM42.4465 23.88C42.2318 22.8335 41.4537 22.3506 40.5683 22.3506C39.5219 22.3506 38.7975 22.914 38.5828 23.88H42.4465ZM11.9661 31.6342V33.5392H9.09521V41.7228H7.00235V33.5392H4.1582V31.6342H11.9661Z" fill="white"/>
<path fill-rule="evenodd" clip-rule="evenodd" d="M15.2393 41.9377C14.1124 41.9377 13.1464 41.5621 12.3952 40.784C11.6171 40.0059 11.2415 39.0399 11.2415 37.9399C11.2415 36.8129 11.6171 35.8738 12.3952 35.0957C13.1464 34.3176 14.1124 33.9152 15.2393 33.9152C16.3662 33.9152 17.3053 34.3176 18.0835 35.0957C18.8616 35.8738 19.264 36.8129 19.264 37.9399C19.264 39.0399 18.8616 40.0059 18.0835 40.784C17.3053 41.5621 16.3662 41.9377 15.2393 41.9377ZM15.2393 40.0327C15.8296 40.0327 16.3126 39.8181 16.715 39.4424C17.1086 39.031 17.3053 38.5301 17.3053 37.9399C17.3053 37.3317 17.1086 36.8308 16.715 36.4373C16.3126 36.0348 15.8296 35.8202 15.2393 35.8202C14.649 35.8202 14.1571 36.0259 13.7636 36.4373C13.3879 36.8308 13.2001 37.3317 13.2001 37.9399C13.2001 38.5301 13.3879 39.031 13.7636 39.4424C14.1571 39.8359 14.649 40.0327 15.2393 40.0327ZM7.40457 55.7022L4.45312 45.0502H6.65328L8.66563 52.9386L10.8926 45.0502H12.6903L14.9173 52.9386L16.9565 45.0502H19.1567L16.1784 55.7022H13.7904L11.7781 48.6724L9.79253 55.7022H7.40457Z" fill="white"/>
<path fill-rule="evenodd" clip-rule="evenodd" d="M22.9686 55.8899C21.8685 55.8899 20.9026 55.5143 20.1245 54.7362C19.3464 53.9849 18.9707 53.019 18.9707 51.892C18.9707 50.7651 19.3464 49.826 20.1245 49.0479C20.9026 48.2698 21.8685 47.8942 22.9686 47.8942C24.0955 47.8942 25.0614 48.2698 25.8395 49.0479C26.6177 49.826 26.9933 50.7651 26.9933 51.892C26.9933 53.019 26.6177 53.9849 25.8395 54.7362C25.0614 55.5143 24.0955 55.8899 22.9686 55.8899ZM22.9686 53.9849C23.5589 53.9849 24.0508 53.7881 24.4443 53.3946C24.8379 53.0011 25.0346 52.5002 25.0346 51.892C25.0346 51.2839 24.8379 50.783 24.4443 50.3895C24.0508 49.996 23.5589 49.7992 22.9686 49.7992C22.3783 49.7992 21.8953 49.996 21.5197 50.3895C21.1262 50.783 20.9294 51.2839 20.9294 51.892C20.9294 52.5002 21.1262 53.0011 21.5197 53.3946C21.8953 53.7881 22.3783 53.9849 22.9686 53.9849ZM30.3472 49.3967C30.696 48.4308 31.6083 47.9478 32.6547 47.9478V50.1212C32.0644 50.0675 31.5009 50.1748 31.0448 50.4968C30.5618 50.8188 30.3472 51.3286 30.3472 52.053V55.7021H28.3885V48.1088H30.3472V49.3967ZM41.0798 55.6753H38.8259L36.0623 52.214V55.6753H34.1036V45.05H36.0623V51.4091L38.6649 48.082H40.9993L37.9405 51.8384L41.0798 55.6753ZM41.8042 54.3069C41.8042 53.3409 42.5554 52.5897 43.5214 52.5897C44.4873 52.5897 45.2386 53.3409 45.2386 54.28C45.2386 55.246 44.4873 55.9972 43.5214 55.9972C42.5554 55.9972 41.8042 55.2728 41.8042 54.3069ZM44.9167 54.28C44.9167 53.4483 44.3263 52.858 43.5214 52.858C42.6896 52.858 42.0994 53.4483 42.0994 54.3069C42.0994 55.1386 42.7433 55.7289 43.5214 55.7289C44.3263 55.7289 44.9167 55.1386 44.9167 54.28ZM42.9311 53.4214H43.5214C43.9238 53.4214 44.1654 53.5824 44.1654 53.9312C44.1654 54.1995 44.0312 54.3337 43.8165 54.3874L44.2727 55.1118H43.897L43.4677 54.4678H43.3068V55.1118H42.9311V53.4214ZM43.5214 54.1995C43.7181 54.1995 43.8165 54.119 43.8165 53.9581C43.8165 53.7702 43.7092 53.7166 43.5214 53.7166H43.3068V54.1995H43.5214Z" fill="white"/>
<path d="M58.0639 91.9243H57.4735V93.2391H56.9101V91.9243H56.293V91.3877H58.0639V91.9243ZM60.5591 93.2391H59.9957V92.4878L59.5664 93.2391H59.3249L58.8956 92.4878V93.2391H58.3322V91.3877H58.8151L59.4322 92.5146L60.0762 91.3877H60.5591V93.2391Z" fill="#002170"/>
</svg>
