<svg width="25" height="25" viewBox="0 0 25 25" fill="none" xmlns="http://www.w3.org/2000/svg">
<g clip-path="url(#clip0_6292_61455)">
<path d="M22.2853 0H1.77681C0.794394 0 0 0.775592 0 1.73451V22.3276C0 23.2866 0.794394 24.0669 1.77681 24.0669H22.2853C23.2678 24.0669 24.0669 23.2866 24.0669 22.3323V1.73451C24.0669 0.775592 23.2678 0 22.2853 0ZM7.14015 20.5085H3.56772V9.02037H7.14015V20.5085ZM5.35393 7.45508C4.207 7.45508 3.28099 6.52907 3.28099 5.38684C3.28099 4.2446 4.207 3.31859 5.35393 3.31859C6.49617 3.31859 7.42218 4.2446 7.42218 5.38684C7.42218 6.52437 6.49617 7.45508 5.35393 7.45508ZM20.5085 20.5085H16.9408V14.9243C16.9408 13.594 16.9173 11.8783 15.0841 11.8783C13.2274 11.8783 12.9453 13.3308 12.9453 14.8303V20.5085H9.38231V9.02037H12.8043V10.5904H12.8513C13.3261 9.68785 14.4918 8.73364 16.2263 8.73364C19.8411 8.73364 20.5085 11.1121 20.5085 14.2051V20.5085Z" fill="#231E33"/>
</g>
<defs>
<clipPath id="clip0_6292_61455">
<rect width="24.0669" height="24.0669" fill="white"/>
</clipPath>
</defs>
</svg>
