<svg width="131" height="41" viewBox="0 0 131 41" fill="none" xmlns="http://www.w3.org/2000/svg">
<rect x="0.501393" y="0.501393" width="129.359" height="39.1086" rx="7.52089" fill="#101111"/>
<rect x="0.501393" y="0.501393" width="129.359" height="39.1086" rx="7.52089" stroke="#A6A6A6" stroke-width="1.00279"/>
<path d="M24.2181 9.02495C24.3152 10.2927 23.9143 11.5484 23.1005 12.5253C22.311 13.5073 21.1147 14.0729 19.8547 14.0599C19.7746 12.8287 20.1872 11.6161 21.0016 10.6892C21.8264 9.74974 22.9748 9.15553 24.2181 9.02495Z" fill="white"/>
<path d="M28.2056 16.474C26.7562 17.365 25.8644 18.9364 25.8424 20.6376C25.8445 22.5623 26.9971 24.2993 28.7698 25.049C28.4289 26.1565 27.915 27.2032 27.2472 28.1502C26.3503 29.4918 25.4099 30.8025 23.9174 30.8267C23.2076 30.8431 22.7284 30.639 22.2291 30.4263C21.7083 30.2045 21.1656 29.9733 20.3164 29.9733C19.4158 29.9733 18.8488 30.2119 18.3019 30.442C17.8293 30.6409 17.3718 30.8335 16.727 30.8602C15.3056 30.9129 14.2193 29.4283 13.2898 28.0992C11.4321 25.3851 9.98547 20.4503 11.9249 17.0926C12.8356 15.4561 14.5384 14.4176 16.4102 14.3571C17.2164 14.3405 17.99 14.6513 18.6682 14.9237C19.1868 15.132 19.6497 15.3179 20.0288 15.3179C20.362 15.3179 20.812 15.1393 21.3364 14.9312C22.1625 14.6034 23.1733 14.2022 24.2033 14.3103C25.8038 14.3604 27.2871 15.1622 28.2056 16.474Z" fill="white"/>
<path fill-rule="evenodd" clip-rule="evenodd" d="M42.9328 14.5403H40.9073V7.97656H43.0225C43.6592 7.97656 44.2041 8.10796 44.657 8.37077C45.11 8.63144 45.4572 9.00641 45.6986 9.4957C45.9401 9.98285 46.0608 10.5661 46.0608 11.2456C46.0608 11.9293 45.939 12.5179 45.6954 13.0115C45.4519 13.5029 45.0972 13.8811 44.6314 14.146C44.1656 14.4088 43.5994 14.5403 42.9328 14.5403ZM41.7021 13.8352H42.8815C43.4242 13.8352 43.874 13.7305 44.2308 13.5211C44.5876 13.3117 44.8536 13.0136 45.0288 12.6269C45.204 12.2402 45.2916 11.7797 45.2916 11.2456C45.2916 10.7157 45.2051 10.2595 45.032 9.87708C44.859 9.49249 44.6004 9.19764 44.2564 8.99252C43.9124 8.78527 43.484 8.68165 42.9713 8.68165H41.7021V13.8352Z" fill="white"/>
<path fill-rule="evenodd" clip-rule="evenodd" d="M49.4719 14.6428C49.0275 14.6428 48.6375 14.537 48.3021 14.3255C47.9688 14.114 47.7081 13.8181 47.5201 13.4378C47.3342 13.0574 47.2412 12.613 47.2412 12.1045C47.2412 11.5917 47.3342 11.1441 47.5201 10.7616C47.7081 10.3792 47.9688 10.0822 48.3021 9.87067C48.6375 9.65915 49.0275 9.55339 49.4719 9.55339C49.9163 9.55339 50.3052 9.65915 50.6385 9.87067C50.9739 10.0822 51.2346 10.3792 51.4205 10.7616C51.6085 11.1441 51.7025 11.5917 51.7025 12.1045C51.7025 12.613 51.6085 13.0574 51.4205 13.4378C51.2346 13.8181 50.9739 14.114 50.6385 14.3255C50.3052 14.537 49.9163 14.6428 49.4719 14.6428ZM49.4719 13.9634C49.8095 13.9634 50.0872 13.8768 50.3052 13.7038C50.5231 13.5307 50.6844 13.3031 50.7891 13.0211C50.8938 12.7391 50.9461 12.4335 50.9461 12.1045C50.9461 11.7755 50.8938 11.4689 50.7891 11.1847C50.6844 10.9005 50.5231 10.6708 50.3052 10.4956C50.0872 10.3204 49.8095 10.2328 49.4719 10.2328C49.1343 10.2328 48.8565 10.3204 48.6386 10.4956C48.4207 10.6708 48.2593 10.9005 48.1546 11.1847C48.05 11.4689 47.9976 11.7755 47.9976 12.1045C47.9976 12.4335 48.05 12.7391 48.1546 13.0211C48.2593 13.3031 48.4207 13.5307 48.6386 13.7038C48.8565 13.8768 49.1343 13.9634 49.4719 13.9634Z" fill="white"/>
<path d="M52.4855 9.61748L53.9854 14.5403H54.729L55.8058 10.7584H55.8827L56.9596 14.5403H57.7031L59.203 9.61748H58.4082L57.3442 13.3737H57.2929L56.2545 9.61748H55.4469L54.3957 13.3865H54.3444L53.2803 9.61748H52.4855Z" fill="white"/>
<path d="M61.1399 11.5789V14.5403H60.3835V9.61748H61.1142V10.3867H61.1783C61.2937 10.1367 61.4689 9.93584 61.7039 9.78414C61.9389 9.6303 62.2423 9.55339 62.6141 9.55339C62.9474 9.55339 63.2391 9.62176 63.4891 9.7585C63.739 9.89311 63.9335 10.0982 64.0724 10.3738C64.2112 10.6473 64.2807 10.9935 64.2807 11.4122V14.5403H63.5243V11.4635C63.5243 11.0768 63.4239 10.7755 63.223 10.5597C63.0222 10.3418 62.7466 10.2328 62.3962 10.2328C62.1547 10.2328 61.9389 10.2852 61.7488 10.3899C61.5608 10.4946 61.4123 10.6473 61.3033 10.8482C61.1943 11.049 61.1399 11.2926 61.1399 11.5789Z" fill="white"/>
<path d="M66.5997 14.5403V7.97656H65.8433V14.5403H66.5997Z" fill="white"/>
<path fill-rule="evenodd" clip-rule="evenodd" d="M70.1654 14.6428C69.721 14.6428 69.331 14.537 68.9956 14.3255C68.6623 14.114 68.4016 13.8181 68.2136 13.4378C68.0277 13.0574 67.9347 12.613 67.9347 12.1045C67.9347 11.5917 68.0277 11.1441 68.2136 10.7616C68.4016 10.3792 68.6623 10.0822 68.9956 9.87067C69.331 9.65915 69.721 9.55339 70.1654 9.55339C70.6098 9.55339 70.9986 9.65915 71.332 9.87067C71.6674 10.0822 71.9281 10.3792 72.114 10.7616C72.302 11.1441 72.396 11.5917 72.396 12.1045C72.396 12.613 72.302 13.0574 72.114 13.4378C71.9281 13.8181 71.6674 14.114 71.332 14.3255C70.9986 14.537 70.6098 14.6428 70.1654 14.6428ZM70.1654 13.9634C70.503 13.9634 70.7807 13.8768 70.9986 13.7038C71.2166 13.5307 71.3779 13.3031 71.4826 13.0211C71.5873 12.7391 71.6396 12.4335 71.6396 12.1045C71.6396 11.7755 71.5873 11.4689 71.4826 11.1847C71.3779 10.9005 71.2166 10.6708 70.9986 10.4956C70.7807 10.3204 70.503 10.2328 70.1654 10.2328C69.8278 10.2328 69.55 10.3204 69.3321 10.4956C69.1142 10.6708 68.9528 10.9005 68.8481 11.1847C68.7435 11.4689 68.6911 11.7755 68.6911 12.1045C68.6911 12.4335 68.7435 12.7391 68.8481 13.0211C68.9528 13.3031 69.1142 13.5307 69.3321 13.7038C69.55 13.8768 69.8278 13.9634 70.1654 13.9634Z" fill="white"/>
<path fill-rule="evenodd" clip-rule="evenodd" d="M74.3304 14.4794C74.5847 14.5969 74.8678 14.6556 75.1797 14.6556C75.466 14.6556 75.7085 14.6129 75.9072 14.5274C76.1059 14.442 76.2651 14.3383 76.3848 14.2166C76.5044 14.0948 76.5899 13.9805 76.6411 13.8736H76.6796V14.5403H77.436V11.2969C77.436 10.9059 77.3719 10.5939 77.2437 10.361C77.1155 10.1281 76.9542 9.954 76.7597 9.83862C76.5674 9.72325 76.3677 9.6474 76.1604 9.61107C75.9553 9.57262 75.7737 9.55339 75.6156 9.55339C75.3677 9.55339 75.1156 9.58757 74.8592 9.65594C74.605 9.72218 74.3699 9.83969 74.1541 10.0085C73.9405 10.1751 73.7695 10.408 73.6413 10.7072L74.3592 10.9636C74.4426 10.7841 74.5868 10.6153 74.7919 10.4572C74.997 10.2991 75.2801 10.22 75.6412 10.22C75.9895 10.22 76.2491 10.3076 76.42 10.4828C76.5931 10.658 76.6796 10.9037 76.6796 11.2199V11.2456C76.6796 11.3674 76.6358 11.4528 76.5482 11.502C76.4627 11.5511 76.326 11.5864 76.138 11.6077C75.9521 11.627 75.7096 11.6558 75.4105 11.6943C75.1818 11.7242 74.9543 11.7648 74.7278 11.8161C74.5035 11.8652 74.2983 11.94 74.1125 12.0404C73.9266 12.1408 73.7781 12.2797 73.667 12.457C73.5559 12.6323 73.5003 12.8609 73.5003 13.1429C73.5003 13.4634 73.5751 13.7369 73.7247 13.9634C73.8742 14.1877 74.0761 14.3597 74.3304 14.4794ZM76.0514 13.7999C75.8463 13.9174 75.5942 13.9762 75.2951 13.9762C74.9938 13.9762 74.7449 13.9099 74.5483 13.7775C74.3539 13.6429 74.2567 13.4442 74.2567 13.1814C74.2567 12.9891 74.308 12.8374 74.4105 12.7263C74.5152 12.613 74.652 12.5286 74.8208 12.4731C74.9917 12.4154 75.1754 12.3737 75.372 12.3481C75.4532 12.3374 75.559 12.3246 75.6893 12.3096C75.8218 12.2925 75.9574 12.2733 76.0963 12.2519C76.2373 12.2284 76.3613 12.2017 76.4681 12.1718C76.577 12.1398 76.6476 12.1045 76.6796 12.066V12.7583C76.6796 12.9634 76.6262 13.1589 76.5194 13.3448C76.4147 13.5307 76.2587 13.6824 76.0514 13.7999Z" fill="white"/>
<path fill-rule="evenodd" clip-rule="evenodd" d="M80.8558 14.6428C80.4456 14.6428 80.0835 14.5392 79.7694 14.3319C79.4553 14.1225 79.2096 13.8277 79.0322 13.4474C78.8549 13.0649 78.7662 12.613 78.7662 12.0917C78.7662 11.5746 78.8549 11.1259 79.0322 10.7456C79.2096 10.3653 79.4564 10.0715 79.7726 9.86426C80.0888 9.65701 80.4542 9.55339 80.8687 9.55339C81.1892 9.55339 81.4423 9.6068 81.6282 9.71363C81.8162 9.81833 81.9594 9.93798 82.0577 10.0726C82.1581 10.2051 82.2361 10.314 82.2917 10.3995H82.3558V7.97656H83.1121V14.5403H82.3814V13.7839H82.2917C82.2361 13.8736 82.157 13.9869 82.0545 14.1236C81.9519 14.2582 81.8056 14.3789 81.6154 14.4858C81.4253 14.5905 81.1721 14.6428 80.8558 14.6428ZM80.9584 13.9634C81.2618 13.9634 81.5182 13.8843 81.7276 13.7262C81.937 13.566 82.0961 13.3448 82.2051 13.0628C82.3141 12.7786 82.3686 12.4506 82.3686 12.0789C82.3686 11.7114 82.3152 11.3898 82.2083 11.1142C82.1015 10.8364 81.9434 10.6206 81.734 10.4668C81.5246 10.3108 81.2661 10.2328 80.9584 10.2328C80.6379 10.2328 80.3708 10.3151 80.1572 10.4796C79.9456 10.642 79.7865 10.8631 79.6796 11.143C79.5749 11.4208 79.5226 11.7327 79.5226 12.0789C79.5226 12.4293 79.576 12.7476 79.6828 13.0339C79.7918 13.3181 79.9521 13.5446 80.1636 13.7134C80.3772 13.88 80.6422 13.9634 80.9584 13.9634Z" fill="white"/>
<path fill-rule="evenodd" clip-rule="evenodd" d="M88.3318 14.3255C88.6672 14.537 89.0572 14.6428 89.5016 14.6428C89.946 14.6428 90.3349 14.537 90.6682 14.3255C91.0036 14.114 91.2643 13.8181 91.4502 13.4378C91.6382 13.0574 91.7322 12.613 91.7322 12.1045C91.7322 11.5917 91.6382 11.1441 91.4502 10.7616C91.2643 10.3792 91.0036 10.0822 90.6682 9.87067C90.3349 9.65915 89.946 9.55339 89.5016 9.55339C89.0572 9.55339 88.6672 9.65915 88.3318 9.87067C87.9985 10.0822 87.7378 10.3792 87.5498 10.7616C87.3639 11.1441 87.271 11.5917 87.271 12.1045C87.271 12.613 87.3639 13.0574 87.5498 13.4378C87.7378 13.8181 87.9985 14.114 88.3318 14.3255ZM90.3349 13.7038C90.1169 13.8768 89.8392 13.9634 89.5016 13.9634C89.164 13.9634 88.8862 13.8768 88.6683 13.7038C88.4504 13.5307 88.2891 13.3031 88.1844 13.0211C88.0797 12.7391 88.0273 12.4335 88.0273 12.1045C88.0273 11.7755 88.0797 11.4689 88.1844 11.1847C88.2891 10.9005 88.4504 10.6708 88.6683 10.4956C88.8862 10.3204 89.164 10.2328 89.5016 10.2328C89.8392 10.2328 90.1169 10.3204 90.3349 10.4956C90.5528 10.6708 90.7141 10.9005 90.8188 11.1847C90.9235 11.4689 90.9758 11.7755 90.9758 12.1045C90.9758 12.4335 90.9235 12.7391 90.8188 13.0211C90.7141 13.3031 90.5528 13.5307 90.3349 13.7038Z" fill="white"/>
<path d="M93.8236 11.5789V14.5403H93.0673V9.61748H93.798V10.3867H93.8621C93.9775 10.1367 94.1527 9.93584 94.3877 9.78414C94.6227 9.6303 94.9261 9.55339 95.2979 9.55339C95.6312 9.55339 95.9229 9.62176 96.1729 9.7585C96.4228 9.89311 96.6173 10.0982 96.7561 10.3738C96.895 10.6473 96.9645 10.9935 96.9645 11.4122V14.5403H96.2081V11.4635C96.2081 11.0768 96.1077 10.7755 95.9069 10.5597C95.706 10.3418 95.4304 10.2328 95.08 10.2328C94.8385 10.2328 94.6227 10.2852 94.4326 10.3899C94.2446 10.4946 94.0961 10.6473 93.9871 10.8482C93.8781 11.049 93.8236 11.2926 93.8236 11.5789Z" fill="white"/>
<path d="M103.387 10.2585V9.61748H102.336V8.43807H101.579V9.61748H100.836V10.2585H101.579V13.3352C101.579 13.6215 101.645 13.8587 101.778 14.0467C101.913 14.2347 102.081 14.3747 102.284 14.4665C102.489 14.5584 102.699 14.6043 102.912 14.6043C103.053 14.6043 103.17 14.5937 103.262 14.5723C103.354 14.5531 103.425 14.5338 103.477 14.5146L103.323 13.8352L103.194 13.8608C103.141 13.8694 103.073 13.8736 102.989 13.8736C102.878 13.8736 102.773 13.8565 102.672 13.8223C102.574 13.786 102.493 13.7155 102.429 13.6108C102.367 13.504 102.336 13.3437 102.336 13.1301V10.2585H103.387Z" fill="white"/>
<path d="M105.567 11.5789V14.5403H104.811V7.97656H105.567V10.3867H105.631C105.747 10.1324 105.92 9.9305 106.15 9.78094C106.383 9.62924 106.693 9.55339 107.08 9.55339C107.415 9.55339 107.709 9.62069 107.961 9.7553C108.213 9.88777 108.409 10.0918 108.548 10.3674C108.689 10.6409 108.759 10.9892 108.759 11.4122V14.5403H108.003V11.4635C108.003 11.0725 107.901 10.7702 107.698 10.5565C107.498 10.3407 107.219 10.2328 106.862 10.2328C106.614 10.2328 106.392 10.2852 106.195 10.3899C106.001 10.4946 105.847 10.6473 105.734 10.8482C105.623 11.049 105.567 11.2926 105.567 11.5789Z" fill="white"/>
<path fill-rule="evenodd" clip-rule="evenodd" d="M111.16 14.3287C111.504 14.5381 111.913 14.6428 112.387 14.6428C112.721 14.6428 113.021 14.5915 113.288 14.489C113.555 14.3843 113.779 14.239 113.961 14.0531C114.143 13.8651 114.272 13.6471 114.349 13.3993L113.618 13.1942C113.554 13.3651 113.463 13.5083 113.346 13.6236C113.228 13.7369 113.088 13.8223 112.926 13.88C112.766 13.9356 112.586 13.9634 112.387 13.9634C112.082 13.9634 111.814 13.8971 111.583 13.7647C111.352 13.6301 111.172 13.4346 111.041 13.1782C110.925 12.9437 110.862 12.6628 110.851 12.3353H114.426V12.0148C114.426 11.5554 114.365 11.1687 114.243 10.8546C114.121 10.5405 113.958 10.2884 113.753 10.0982C113.548 9.90593 113.32 9.76705 113.07 9.68158C112.82 9.59612 112.567 9.55339 112.311 9.55339C111.866 9.55339 111.477 9.66235 111.144 9.88029C110.813 10.0961 110.554 10.3974 110.368 10.7841C110.185 11.1687 110.093 11.6131 110.093 12.1173C110.093 12.6216 110.185 13.0638 110.368 13.4442C110.554 13.8223 110.818 14.1172 111.16 14.3287ZM110.853 11.6815C110.867 11.4531 110.925 11.2373 111.025 11.0341C111.143 10.7969 111.311 10.6046 111.529 10.4572C111.749 10.3076 112.009 10.2328 112.311 10.2328C112.584 10.2328 112.821 10.2959 113.022 10.4219C113.225 10.548 113.381 10.72 113.49 10.9379C113.601 11.1558 113.657 11.4037 113.657 11.6815H110.853Z" fill="white"/>
<path fill-rule="evenodd" clip-rule="evenodd" d="M60.9023 26.6727C60.9023 23.8592 59.3834 22.0377 57.0792 22.0377C55.8935 21.9995 54.7828 22.6161 54.1883 23.6428H54.154V22.1327H52.3502V34.2151H54.2137V29.7182H54.2569C54.826 30.7513 55.9355 31.3682 57.1134 31.3066C59.3922 31.3066 60.9023 29.494 60.9023 26.6727ZM54.2059 26.6727C54.2059 24.86 55.1637 23.6261 56.5876 23.6261C58.0369 23.6261 58.9868 24.8346 58.9868 26.6727C58.9868 28.5274 58.0369 29.727 56.5876 29.727C55.1637 29.727 54.2059 28.502 54.2059 26.6727Z" fill="white"/>
<path fill-rule="evenodd" clip-rule="evenodd" d="M70.8949 26.6727C70.8949 23.8592 69.376 22.0377 67.0717 22.0377C65.886 21.9995 64.7753 22.6161 64.1809 23.6428H64.1466V22.1327H62.3428V34.2151H64.2063V29.7182H64.2495C64.8186 30.7513 65.9281 31.3682 67.106 31.3066C69.3848 31.3066 70.8949 29.494 70.8949 26.6727ZM64.1985 26.6727C64.1985 24.86 65.1563 23.6261 66.5802 23.6261C68.0295 23.6261 68.9794 24.8346 68.9794 26.6727C68.9794 28.5274 68.0295 29.727 66.5802 29.727C65.1563 29.727 64.1985 28.502 64.1985 26.6727Z" fill="white"/>
<path d="M84.9466 22.1757C84.8859 20.0272 83.082 18.5514 80.4507 18.5514C77.792 18.5514 75.9196 20.0272 75.9196 22.1757C75.9196 23.911 76.9811 24.9804 79.2678 25.5327L80.8816 25.9215C82.4955 26.3181 83.177 26.8969 83.177 27.8634C83.177 28.9769 82.047 29.7877 80.4762 29.7877C78.8369 29.7877 77.6372 28.9769 77.4992 27.742L75.5915 27.7419C75.7119 29.9943 77.5765 31.4192 80.3381 31.4192C83.2896 31.4192 85.1454 29.96 85.1454 27.6303C85.1454 25.8089 84.0838 24.7826 81.5289 24.1783L80.1569 23.8415C78.5519 23.4449 77.8958 22.9269 77.8958 22.0465C77.8958 20.9418 78.923 20.1829 80.4243 20.1829C81.9255 20.1829 82.9528 20.933 83.0654 22.1757H84.9466Z" fill="white"/>
<path fill-rule="evenodd" clip-rule="evenodd" d="M100.506 26.6727C100.506 23.8161 98.8319 22.0211 96.1996 22.0211C93.5761 22.0211 91.8937 23.8161 91.8937 26.6727C91.8937 29.5371 93.5594 31.3242 96.1996 31.3242C98.8407 31.3242 100.506 29.5371 100.506 26.6727ZM93.7925 26.6727C93.7925 24.7219 94.6895 23.5566 96.1996 23.5566C97.7096 23.5566 98.6076 24.7131 98.6076 26.6727C98.6076 28.64 97.7096 29.7878 96.1996 29.7878C94.6895 29.7878 93.7925 28.64 93.7925 26.6727Z" fill="white"/>
<path fill-rule="evenodd" clip-rule="evenodd" d="M115.382 26.4993C115.382 23.7465 113.802 22.0211 111.29 22.0211C108.736 22.0211 107.088 23.868 107.088 26.7157C107.088 29.5547 108.728 31.3242 111.369 31.3242C113.422 31.3242 115.027 30.1932 115.278 28.545L113.508 28.545C113.169 29.3874 112.316 29.9068 111.412 29.822C110.734 29.847 110.077 29.5794 109.61 29.0874C109.143 28.5954 108.91 27.9263 108.969 27.2504V27.1378H115.382V26.4993ZM109.654 24.2015C110.088 23.7688 110.677 23.5275 111.29 23.5311C111.898 23.518 112.484 23.7593 112.907 24.1967C113.33 24.6341 113.551 25.228 113.517 25.8354H108.978C108.977 25.2224 109.22 24.6342 109.654 24.2015Z" fill="white"/>
<path d="M89.1673 22.1327V19.9841H87.2949V22.1327H85.9749V23.6085H87.2949V28.8124C87.2949 30.5731 88.0118 31.2635 89.8499 31.2635C90.1969 31.27 90.5438 31.2411 90.885 31.1773V29.7104C90.6815 29.7355 90.4769 29.7499 90.2719 29.7535C89.513 29.7535 89.1673 29.3911 89.1673 28.6136V23.6085H90.8938V22.1327H89.1673Z" fill="white"/>
<path fill-rule="evenodd" clip-rule="evenodd" d="M51.1927 31.2116L46.6968 18.759H44.608L40.1121 31.2116H42.1226L43.2625 27.8458H48.009L49.1479 31.2116H51.1927ZM45.6098 20.8302H45.6617L47.5165 26.2927H43.7541L45.6098 20.8302Z" fill="white"/>
<path d="M106.686 22.1072C106.476 22.0603 106.262 22.0369 106.047 22.0377C105.023 21.9986 104.111 22.6832 103.863 23.678H103.82V22.1327H102.043V31.2116H103.906V25.8265C103.844 25.2817 104.024 24.737 104.397 24.3354C104.77 23.9339 105.301 23.7155 105.848 23.7377C106.132 23.7295 106.415 23.7675 106.686 23.8503V22.1072Z" fill="white"/>
</svg>
