<svg width="25" height="25" viewBox="0 0 25 25" fill="none" xmlns="http://www.w3.org/2000/svg">
<g clip-path="url(#clip0_6292_61461)">
<path d="M23.8271 7.68984C23.8271 7.68984 23.5921 6.01872 22.8682 5.28494C21.9516 4.31919 20.9269 4.31445 20.4568 4.25765C17.0912 4.01147 12.0381 4.01147 12.0381 4.01147H12.0287C12.0287 4.01147 6.97563 4.01147 3.61003 4.25765C3.13997 4.31445 2.11525 4.31919 1.19864 5.28494C0.474756 6.01872 0.244429 7.68984 0.244429 7.68984C0.244429 7.68984 0 9.65448 0 11.6144V13.4512C0 15.4111 0.239728 17.3757 0.239728 17.3757C0.239728 17.3757 0.474756 19.0469 1.19394 19.7806C2.11055 20.7464 3.31389 20.7132 3.84976 20.8174C5.77699 21.002 12.0334 21.0588 12.0334 21.0588C12.0334 21.0588 17.0912 21.0494 20.4568 20.8079C20.9269 20.7511 21.9516 20.7464 22.8682 19.7806C23.5921 19.0469 23.8271 17.3757 23.8271 17.3757C23.8271 17.3757 24.0669 15.4158 24.0669 13.4512V11.6144C24.0669 9.65448 23.8271 7.68984 23.8271 7.68984ZM9.54683 15.6809V8.86862L16.0477 12.2866L9.54683 15.6809Z" fill="#231E33"/>
</g>
<defs>
<clipPath id="clip0_6292_61461">
<rect width="24.0669" height="24.0669" fill="white"/>
</clipPath>
</defs>
</svg>
