<svg width="16" height="16" viewBox="0 0 16 16" fill="none" xmlns="http://www.w3.org/2000/svg">
<path fill-rule="evenodd" clip-rule="evenodd" d="M11.1202 1.85164C11.1323 2.59944 10.9027 3.33122 10.4652 3.93842C10.3514 4.11134 10.2046 4.26023 10.0332 4.37664L9.90081 4.87051H13.9075C14.5383 4.86951 15.1359 5.15291 15.5335 5.64171C15.9312 6.13052 16.0865 6.77245 15.9562 7.38855L14.451 14.3445C14.2466 15.3107 13.3917 16.0016 12.4024 16H0.667969V4.87051H3.86636L8.59079 0.196127L8.81377 0.00136137H9.0925C10.1612 -0.0381125 11.0639 0.785607 11.1202 1.85164ZM9.31548 1.45515L4.84888 5.8513V14.6088H12.4024C12.7345 14.6169 13.0262 14.3898 13.0992 14.0662L14.5834 7.11032C14.6299 6.90478 14.5805 6.6893 14.4491 6.52438C14.3177 6.35945 14.1186 6.26285 13.9075 6.2617H8.09605L8.33296 5.3922L8.74409 3.82712L8.83467 3.54193L9.07159 3.41672C9.1941 3.33722 9.29855 3.23295 9.37819 3.11066C9.63003 2.74073 9.7525 2.29816 9.7266 1.85164C9.7266 1.636 9.60814 1.51775 9.31548 1.45515ZM3.45524 6.2617H2.0616V14.6088H3.45524V6.2617Z" fill="#44B8F3"/>
<mask id="mask0_6199_129512" style="mask-type:luminance" maskUnits="userSpaceOnUse" x="0" y="0" width="16" height="16">
<path fill-rule="evenodd" clip-rule="evenodd" d="M11.1202 1.85164C11.1323 2.59944 10.9027 3.33122 10.4652 3.93842C10.3514 4.11134 10.2046 4.26023 10.0332 4.37664L9.90081 4.87051H13.9075C14.5383 4.86951 15.1359 5.15291 15.5335 5.64171C15.9312 6.13052 16.0865 6.77245 15.9562 7.38855L14.451 14.3445C14.2466 15.3107 13.3917 16.0016 12.4024 16H0.667969V4.87051H3.86636L8.59079 0.196127L8.81377 0.00136137H9.0925C10.1612 -0.0381125 11.0639 0.785607 11.1202 1.85164ZM9.31548 1.45515L4.84888 5.8513V14.6088H12.4024C12.7345 14.6169 13.0262 14.3898 13.0992 14.0662L14.5834 7.11032C14.6299 6.90478 14.5805 6.6893 14.4491 6.52438C14.3177 6.35945 14.1186 6.26285 13.9075 6.2617H8.09605L8.33296 5.3922L8.74409 3.82712L8.83467 3.54193L9.07159 3.41672C9.1941 3.33722 9.29855 3.23295 9.37819 3.11066C9.63003 2.74073 9.7525 2.29816 9.7266 1.85164C9.7266 1.636 9.60814 1.51775 9.31548 1.45515ZM3.45524 6.2617H2.0616V14.6088H3.45524V6.2617Z" fill="white"/>
</mask>
<g mask="url(#mask0_6199_129512)">
</g>
</svg>
