<svg width="20" height="20" viewBox="0 0 20 20" fill="none" xmlns="http://www.w3.org/2000/svg">
<path d="M8.07715 0C12.5378 0.000122148 16.1543 3.61646 16.1543 8.07715C16.1542 10.0179 15.468 11.7976 14.3271 13.1904L19.7646 18.6279C20.0785 18.9418 20.0785 19.4508 19.7646 19.7646C19.4508 20.0785 18.9418 20.0785 18.6279 19.7646L13.1904 14.3271C11.7976 15.468 10.0179 16.1542 8.07715 16.1543C3.61646 16.1543 0.000121636 12.5378 0 8.07715C0 3.61639 3.61639 0 8.07715 0ZM8.07715 1.53809C4.46606 1.53809 1.53809 4.46606 1.53809 8.07715C1.53821 11.6881 4.46613 14.6152 8.07715 14.6152C11.6881 14.6151 14.6151 11.6881 14.6152 8.07715C14.6152 4.46613 11.6881 1.53821 8.07715 1.53809Z" fill="#2861BB"/>
<mask id="mask0_6199_126155" style="mask-type:luminance" maskUnits="userSpaceOnUse" x="0" y="0" width="20" height="20">
<path d="M8.07715 0C12.5378 0.000122148 16.1543 3.61646 16.1543 8.07715C16.1542 10.0179 15.468 11.7976 14.3271 13.1904L19.7646 18.6279C20.0785 18.9418 20.0785 19.4508 19.7646 19.7646C19.4508 20.0785 18.9418 20.0785 18.6279 19.7646L13.1904 14.3271C11.7976 15.468 10.0179 16.1542 8.07715 16.1543C3.61646 16.1543 0.000121636 12.5378 0 8.07715C0 3.61639 3.61639 0 8.07715 0ZM8.07715 1.53809C4.46606 1.53809 1.53809 4.46606 1.53809 8.07715C1.53821 11.6881 4.46613 14.6152 8.07715 14.6152C11.6881 14.6151 14.6151 11.6881 14.6152 8.07715C14.6152 4.46613 11.6881 1.53821 8.07715 1.53809Z" fill="white"/>
</mask>
<g mask="url(#mask0_6199_126155)">
</g>
</svg>
