<svg width="16" height="17" viewBox="0 0 16 17" fill="none" xmlns="http://www.w3.org/2000/svg">
<path fill-rule="evenodd" clip-rule="evenodd" d="M9.09054 16.0268C10.1592 16.0664 11.0619 15.2412 11.1183 14.1733C11.1304 13.4242 10.9007 12.6911 10.4633 12.0828C10.3494 11.9096 10.2026 11.7604 10.0312 11.6438L9.89885 11.1491H13.9056C14.5364 11.1501 15.1339 10.8662 15.5316 10.3765C15.9293 9.88687 16.0846 9.24381 15.9542 8.62661L14.4491 1.65843C14.2446 0.69052 13.3897 -0.00156462 12.4004 6.66159e-06H0.666016V11.1491H3.86441L8.58883 15.8317L8.81182 16.0268H9.09054ZM4.84692 10.1666V1.39364H12.4004C12.7326 1.38552 13.0243 1.61303 13.0972 1.93716L14.5815 8.90534C14.6279 9.11124 14.5785 9.32709 14.4472 9.49231C14.3158 9.65753 14.1166 9.7543 13.9056 9.75546H8.09409L8.33101 10.6265L8.74214 12.1943L8.83272 12.48L9.06964 12.6054C9.19215 12.6851 9.29659 12.7895 9.37624 12.912C9.62807 13.2826 9.75055 13.726 9.72465 14.1733C9.72465 14.3893 9.60619 14.5078 9.31353 14.5705L4.84692 10.1666ZM2.05965 1.39364H3.45329V9.75546H2.05965V1.39364Z" fill="#787777"/>
<mask id="mask0_6199_125760" style="mask-type:luminance" maskUnits="userSpaceOnUse" x="0" y="0" width="16" height="17">
<path fill-rule="evenodd" clip-rule="evenodd" d="M9.09054 16.0268C10.1592 16.0664 11.0619 15.2412 11.1183 14.1733C11.1304 13.4242 10.9007 12.6911 10.4633 12.0828C10.3494 11.9096 10.2026 11.7604 10.0312 11.6438L9.89885 11.1491H13.9056C14.5364 11.1501 15.1339 10.8662 15.5316 10.3765C15.9293 9.88687 16.0846 9.24381 15.9542 8.62661L14.4491 1.65843C14.2446 0.69052 13.3897 -0.00156462 12.4004 6.66159e-06H0.666016V11.1491H3.86441L8.58883 15.8317L8.81182 16.0268H9.09054ZM4.84692 10.1666V1.39364H12.4004C12.7326 1.38552 13.0243 1.61303 13.0972 1.93716L14.5815 8.90534C14.6279 9.11124 14.5785 9.32709 14.4472 9.49231C14.3158 9.65753 14.1166 9.7543 13.9056 9.75546H8.09409L8.33101 10.6265L8.74214 12.1943L8.83272 12.48L9.06964 12.6054C9.19215 12.6851 9.29659 12.7895 9.37624 12.912C9.62807 13.2826 9.75055 13.726 9.72465 14.1733C9.72465 14.3893 9.60619 14.5078 9.31353 14.5705L4.84692 10.1666ZM2.05965 1.39364H3.45329V9.75546H2.05965V1.39364Z" fill="white"/>
</mask>
<g mask="url(#mask0_6199_125760)">
</g>
</svg>
