<svg width="16" height="16" viewBox="0 0 16 16" fill="none" xmlns="http://www.w3.org/2000/svg">
<path d="M8.62234 1.62323L4.98554 5.24345C4.74265 5.48523 4.60479 5.8185 4.60479 6.16484V12.693C4.60479 13.4118 5.19561 13.9999 5.91771 13.9999H11.8259C12.351 13.9999 12.8237 13.6863 13.0338 13.2092L15.1738 8.23633C15.7253 6.94246 14.7734 5.50483 13.362 5.50483H9.65298L10.2766 2.51195C10.3423 2.18522 10.2438 1.85195 10.0075 1.6167C9.62016 1.23769 9.00309 1.23769 8.62234 1.62323ZM1.97894 13.9999C2.70105 13.9999 3.29186 13.4118 3.29186 12.693V7.46524C3.29186 6.74642 2.70105 6.1583 1.97894 6.1583C1.25683 6.1583 0.666016 6.74642 0.666016 7.46524V12.693C0.666016 13.4118 1.25683 13.9999 1.97894 13.9999Z" fill="#2F57A4"/>
</svg>
